<?xml version="1.0" encoding="utf-8"?>
<!-- Generator: Adobe Illustrator 24.1.2, SVG Export Plug-In . SVG Version: 6.00 Build 0)  -->
<svg version="1.1" id="Layer_1" xmlns="http://www.w3.org/2000/svg" xmlns:xlink="http://www.w3.org/1999/xlink" x="0px" y="0px"
	 viewBox="0 0 1200 1200" style="enable-background:new 0 0 1200 1200;" xml:space="preserve">
<style type="text/css">
	.st0{fill:#F1F2F2;}
	.st1{fill:#273B8E;}
</style>
<circle class="st0" cx="600" cy="600" r="324"/>
<g>
	<path class="st1" d="M715.7,549.2c0,11.3,9.1,20.3,20.3,20.3c3.3,0,6.4-0.8,9.2-2.2l8.2-28.6c-3.6-5.9-10-9.8-17.4-9.8
		C724.9,528.9,715.7,538,715.7,549.2z"/>
	<path class="st1" d="M730.2,508.5c-13.9,0-26,9.5-29.2,23l-31.6,132.2l-11.9-49.5l-11.3-47.3l-1.5-6.1l-5.8-23.9l-2-8.3
		c-1.7-7.2-6.3-13-12.4-16.5c-3.8-2.2-8.3-3.5-13-3.5h-25.8c-4.6,0-9,1.4-12.7,3.8c-4.7,3.2-8.2,8.1-9.5,13.9l-25.4,118l-4.2,19.3
		l-4.9-19.3l-16.8-66.9l-5.8-22.8l-5.4-21.5c-3.6-14.6-16.6-24.7-31.6-24.7H428l34.5,122.5l6.1,21.9l15.3-26.7l-0.4,0.6l-15,26
		l27.2,96.8h65.6l17.6-64.8l11-40.5l9.3-34.5l6.9,25.6l12.4,45.5l18.7,68.7h65.2l0.1-0.5l11.5-40.3l2.8-9.6l3.3-11.5l31.3-109
		c-4.5,2.3-9.6,3.6-15.1,3.6c-19.1,0-34.4-16.1-33.2-35.4c1-16.6,14.7-30.2,31.3-31.2c12.9-0.8,24.3,5.9,30.4,16l6.8-23.5h-41.8
		L730.2,508.5L730.2,508.5z"/>
</g>
</svg>
