<?xml version="1.0" encoding="utf-8"?>
<!-- Generator: Adobe Illustrator 24.1.2, SVG Export Plug-In . SVG Version: 6.00 Build 0)  -->
<svg version="1.1" id="Layer_1" xmlns="http://www.w3.org/2000/svg" xmlns:xlink="http://www.w3.org/1999/xlink" x="0px" y="0px"
	 viewBox="0 0 311 212.9" style="enable-background:new 0 0 311 212.9;" xml:space="preserve">
<style type="text/css">
	.st0{fill:#28388F;}
</style>
<g>
	<path class="st0" d="M247.3,46.2c0,8.8,7.1,15.9,15.9,15.9c2.6,0,5-0.6,7.2-1.7l6.4-22.4c-2.8-4.6-7.8-7.7-13.6-7.7
		C254.5,30.4,247.3,37.5,247.3,46.2z"/>
	<path class="st0" d="M258.6,14.4c-10.9,0-20.3,7.4-22.8,18l-24.7,103.4l-9.3-38.7l-8.8-37l-1.2-4.8l-4.5-18.7l-1.6-6.5
		c-1.3-5.6-4.9-10.2-9.7-12.9c-3-1.7-6.5-2.7-10.2-2.7h-20.2c-3.6,0-7,1.1-9.9,3c-3.7,2.5-6.4,6.3-7.4,10.9l-19.9,92.3l-3.3,15.1
		l-3.8-15.1L88.2,68.4l-4.5-17.8l-4.2-16.8c-2.8-11.4-13-19.3-24.7-19.3H22.3l27,95.8l4.8,17.1l12-20.9l-0.3,0.5l-11.7,20.3
		L75.4,203h51.3l13.8-50.7l8.6-31.7l7.3-27l5.4,20l9.7,35.6l14.6,53.7h51l0.1-0.4l9-31.5l2.2-7.5l2.6-9l24.5-85.2
		c-3.5,1.8-7.5,2.8-11.8,2.8c-14.9,0-26.9-12.6-26-27.7c0.8-13,11.5-23.6,24.5-24.4c10.1-0.6,19,4.6,23.8,12.5l5.3-18.4h-32.7V14.4z
		"/>
</g>
</svg>
